<svg width="75" height="73" viewBox="0 0 75 73" fill="none" xmlns="http://www.w3.org/2000/svg">
<g clip-path="url(#clip0_65_93)">
<path d="M17.4842 58.1659C16.5646 57.3406 15.4233 56.7968 14.1984 56.6003C12.9734 56.4037 11.7171 56.5628 10.5815 57.0584C10.3104 57.1734 10.1701 57.207 9.95224 56.9097C8.81873 55.4171 7.80092 53.8416 6.90752 52.1968C6.24734 51.0373 5.66832 49.8343 5.17458 48.5962C4.40417 46.5674 3.82248 44.4731 3.4368 42.3395C3.2007 41.2002 3.07751 40.0409 3.06894 38.8779C2.91888 38.6094 3.06893 38.3073 2.96728 38.0293V34.8697C3.05925 34.5917 2.94307 34.2944 3.04956 34.0163C3.14153 33.3978 3.14155 32.7746 3.219 32.1561C3.58669 29.5003 4.28417 26.8996 5.2956 24.4131C7.01241 20.145 9.57886 16.2628 12.8421 12.9975C14.4574 11.3958 16.217 9.94344 18.0989 8.65859C19.6502 7.66189 21.2673 6.76971 22.9395 5.98809C25.0694 4.88058 27.4703 4.39155 29.7744 3.71553C31.5375 3.24351 33.355 3.00016 35.1814 2.99157C35.5629 2.86495 35.9695 2.83043 36.3673 2.89089C38.9885 2.82287 41.6095 3.03505 44.1848 3.52375C44.5857 3.60249 45.0018 3.53589 45.3572 3.33611C45.7126 3.13632 45.9837 2.81666 46.1211 2.43542C46.1657 2.05402 46.0705 1.66943 45.8529 1.35174C45.6352 1.03404 45.3095 0.804386 44.9351 0.704631C43.4539 0.479292 41.9727 0.225187 40.4673 0.134092H39.533C38.2305 -0.0217058 36.9156 -0.0506108 35.6073 0.0477924C35.3104 0.171245 34.9816 0.198109 34.6683 0.124505V0.124505C32.1565 0.24079 29.6689 0.664316 27.2622 1.38544C24.9338 2.15255 22.5571 2.76623 20.4273 4.0032C19.0138 4.82305 17.5229 5.51824 16.1821 6.45795C14.0257 7.94085 12.0232 9.63198 10.204 11.5065C8.01091 13.7779 6.11467 16.3132 4.55982 19.0529C3.20204 21.453 2.12686 23.9996 1.35536 26.6425C0.704987 28.8664 0.289695 31.1512 0.116169 33.4602C0.00483585 33.6807 0.16942 33.9396 0 34.1506V38.7388C0.16942 38.9546 -4.72453e-06 39.2183 0.116169 39.434C0.0910191 39.837 0.102363 40.2413 0.150057 40.6422C0.503419 42.4785 0.76964 44.3244 1.28758 46.1366C2.03024 48.781 3.06938 51.3348 4.38557 53.7502C5.24139 55.4061 6.28044 56.9627 7.48355 58.3912C7.69033 58.5937 7.81828 58.862 7.84485 59.1489C7.87142 59.4357 7.79489 59.7226 7.62876 59.959C7.16845 60.7992 6.94036 61.7449 6.96756 62.7005C6.99476 63.656 7.27629 64.5875 7.78367 65.4007C8.21244 66.203 8.83426 66.8883 9.59413 67.3959C10.354 67.9035 11.2285 68.2178 12.1402 68.3109C12.3629 68.2725 12.5662 68.2677 12.6242 68.5314C13.2788 68.5914 13.9388 68.5129 14.5605 68.3013C15.8432 67.8938 17.0582 67.4047 17.8811 66.3835C18.4617 65.708 18.8842 64.9137 19.1186 64.0575C19.3529 63.2013 19.3931 62.3043 19.2365 61.4309C19.0229 60.184 18.4082 59.0388 17.4842 58.1659V58.1659ZM13.1277 65.5589C12.7112 65.5717 12.2966 65.4995 11.9095 65.3469C11.5224 65.1943 11.1711 64.9646 10.8775 64.6719C10.5838 64.3792 10.354 64.0298 10.2023 63.6455C10.0506 63.2612 9.98036 62.8501 9.99581 62.4377C10.0733 60.5679 11.2495 59.3932 13.1664 59.4028C13.5862 59.3788 14.0065 59.4413 14.4006 59.5864C14.7948 59.7315 15.1543 59.956 15.4564 60.2458C15.7584 60.5355 15.9965 60.8842 16.1556 61.2697C16.3147 61.6553 16.3913 62.0693 16.3805 62.4857C16.3902 64.461 14.8799 65.5541 13.118 65.5589H13.1277Z" fill="#13399F"/>
<path d="M31.4832 58.708C31.4541 59.4751 31.4832 60.2374 31.4832 60.9997C31.4832 61.9586 32.0495 62.4716 33.0612 62.4764C36.014 62.4764 38.9668 62.4764 41.9195 62.4764C42.9748 62.4764 43.5217 61.9538 43.5362 60.9661C43.5362 60.2278 43.5653 59.4847 43.5362 58.7415C43.5362 58.3484 43.6815 58.2141 44.0735 58.0991C45.0417 57.8258 45.9565 57.5046 46.8763 57.1402C47.6314 56.8573 48.4252 56.1813 49.0787 56.2868C49.7322 56.3922 50.2792 57.2457 50.8746 57.797C51.7265 58.5641 52.4816 58.5593 53.3433 57.797C54.2049 57.0347 55.0956 56.1286 55.9475 55.2704C57.1141 54.1005 58.3339 52.9786 59.5199 51.828C59.6843 51.693 59.8167 51.5238 59.9075 51.3323C59.9984 51.1409 60.0455 50.932 60.0455 50.7204C60.0455 50.5089 59.9984 50.3 59.9075 50.1085C59.8167 49.9171 59.6843 49.7479 59.5199 49.6129C58.9777 49.0712 58.4549 48.5198 57.8983 47.9924C57.7047 47.8102 57.6417 47.6664 57.7917 47.4219C58.6518 45.9811 59.3144 44.4333 59.7619 42.8192C59.8684 42.4452 60.0572 42.3733 60.425 42.3829C61.1802 42.3829 61.9353 42.3829 62.6952 42.3829C63.5859 42.3829 64.1813 41.8459 64.1862 41.0405C64.1862 38.0488 64.2443 35.057 64.1862 32.0701C64.1571 30.9051 63.4407 30.5599 62.5307 30.603C61.8724 30.6366 61.2141 30.603 60.5557 30.603C60.1007 30.603 59.8829 30.5215 59.7425 30.066C59.4098 28.8929 58.9556 27.757 58.3872 26.6764C57.6224 25.238 57.6417 25.238 58.8712 24.1065C58.9584 24.025 59.0503 23.9531 59.1326 23.8668C60.2943 22.673 60.3766 22.021 59.3262 20.9902C57.3271 19.0101 55.2892 17.0635 53.2465 15.1218C52.501 14.417 51.7265 14.4506 50.9424 15.1218C50.4435 15.5359 49.9878 15.9985 49.5821 16.5026C49.5296 16.5919 49.4581 16.6689 49.3724 16.728C49.2868 16.7871 49.1891 16.8269 49.0863 16.8447C48.9835 16.8625 48.878 16.8579 48.7772 16.8311C48.6763 16.8043 48.5827 16.756 48.5027 16.6896C47.8156 16.2354 47.0782 15.8605 46.305 15.5725C45.5644 15.3519 44.8529 15.0643 44.1026 14.8725C43.696 14.767 43.546 14.628 43.5653 14.2348C43.5992 13.5157 43.5653 12.7965 43.5653 12.0773C43.5363 11.0034 42.9989 10.5239 41.842 10.5239H33.2742C32.0641 10.5239 31.5316 11.0034 31.5123 12.1109C31.5123 12.854 31.5123 13.5972 31.5123 14.3355C31.5123 14.5896 31.4639 14.7622 31.1589 14.8149C29.4845 15.1996 27.883 15.847 26.4151 16.7327C26.3568 16.7804 26.289 16.8152 26.216 16.8349C26.1431 16.8546 26.0668 16.8587 25.9921 16.8469C25.9175 16.8351 25.8463 16.8077 25.7832 16.7665C25.72 16.7253 25.6665 16.6713 25.6261 16.6081C25.142 16.1046 24.658 15.6012 24.1739 15.1314C23.3559 14.3786 22.591 14.3786 21.7536 15.1314C20.9162 15.8841 20.2627 16.5985 19.5076 17.3224C18.2829 18.5019 17.0437 19.6717 15.8239 20.8559C14.8268 21.8148 14.8267 22.3662 15.6351 23.4209C16.0772 23.9403 16.563 24.4215 17.0873 24.8593C17.1516 24.8992 17.2068 24.952 17.2494 25.0142C17.292 25.0765 17.321 25.1468 17.3347 25.2207C17.3484 25.2947 17.3463 25.3707 17.3287 25.4438C17.3111 25.5169 17.2784 25.5857 17.2325 25.6456C16.6574 26.6486 16.1715 27.6994 15.7803 28.7859C15.6012 29.366 15.5286 30.1092 15.1027 30.4496C14.6767 30.79 13.7957 30.5311 13.1229 30.5694C13.0246 30.5766 12.9259 30.5766 12.8276 30.5694C11.5932 30.4352 10.8914 30.9961 10.8914 32.4009C10.8914 33.8057 10.8914 35.1433 10.8914 36.5145C10.8914 37.9768 10.8914 39.4391 10.8914 40.8966C10.8914 41.8028 11.4529 42.335 12.421 42.335C13.1277 42.335 13.8393 42.359 14.546 42.335C15.001 42.335 15.2237 42.4117 15.3495 42.872C15.7854 44.4452 16.4369 45.9519 17.2858 47.3499C17.4552 47.628 17.3826 47.7719 17.1696 47.9732C16.5984 48.5198 16.0514 49.0807 15.4996 49.6417C15.3553 49.7657 15.2385 49.918 15.1565 50.0889C15.0745 50.2598 15.0291 50.4457 15.0232 50.6349C15.0173 50.824 15.051 51.0123 15.1221 51.188C15.1933 51.3636 15.3004 51.5227 15.4367 51.6554C17.5665 53.7361 19.7125 55.8137 21.8746 57.8881C22.0147 58.0383 22.1846 58.1582 22.3737 58.2402C22.5628 58.3221 22.767 58.3644 22.9735 58.3644C23.1799 58.3644 23.3841 58.3221 23.5732 58.2402C23.7623 58.1582 23.9322 58.0383 24.0723 57.8881C24.6241 57.4087 25.1614 56.9292 25.6793 56.4114C25.7193 56.3559 25.77 56.3087 25.8284 56.2727C25.8868 56.2366 25.9518 56.2123 26.0197 56.2011C26.0876 56.19 26.157 56.1922 26.2241 56.2078C26.2911 56.2233 26.3544 56.2518 26.4103 56.2916C27.8814 57.0564 29.4355 57.6531 31.0427 58.0703C31.3622 58.2141 31.4929 58.3532 31.4832 58.708ZM26.5507 53.0457C26.2155 52.848 25.8184 52.7803 25.4358 52.8555C25.0532 52.9308 24.7123 53.1437 24.4789 53.4533C24.0797 53.9038 23.6563 54.3327 23.2106 54.7382C23.0025 54.9635 22.8525 54.9539 22.6298 54.7382C21.41 53.5539 20.1708 52.3841 18.9509 51.1999C18.6266 50.8834 18.4669 50.5766 18.9509 50.241C19.3773 49.9076 19.7785 49.5438 20.1514 49.1527C20.4352 48.9176 20.6217 48.5873 20.6753 48.2247C20.7288 47.8621 20.6457 47.4927 20.4418 47.1869C19.1522 45.2088 18.2248 43.0211 17.7021 40.724C17.6386 40.3847 17.4508 40.0805 17.1747 39.8699C16.8987 39.6593 16.5538 39.5571 16.2063 39.583C15.5238 39.583 14.8413 39.583 14.1588 39.583C13.8393 39.583 13.7376 39.5063 13.7425 39.2042C13.7425 37.4079 13.7425 35.61 13.7425 33.8105C13.7425 33.4988 13.878 33.4413 14.1733 33.4509C14.8187 33.4509 15.4528 33.4509 16.0756 33.4509C17.0437 33.4269 17.5278 33.0913 17.7166 32.2187C18.2735 29.9765 19.1852 27.8357 20.4176 25.8757C20.8581 25.1469 20.7516 24.6627 20.1998 24.0298C19.7512 23.5165 19.2659 23.0358 18.7476 22.5915C18.4959 22.3758 18.5831 22.2607 18.7718 22.0593C19.74 21.0093 20.8194 20.0169 21.9085 19.0628C22.2667 18.7512 22.3926 18.1039 22.9347 18.1327C23.4188 18.171 23.5253 18.7895 23.9028 19.0916C24.1255 19.2642 24.3143 19.4703 24.5273 19.6573C24.7893 19.944 25.1486 20.1254 25.5368 20.1669C25.925 20.2085 26.3151 20.1073 26.6329 19.8827C28.3852 18.9238 30.0988 17.9361 32.1222 17.5238C34.1455 17.1115 34.4021 17.0012 34.3634 14.7574C34.3392 13.3862 34.3634 13.3862 35.8736 13.3862C37.2629 13.3862 38.657 13.3862 40.0462 13.3862C40.4625 13.3862 40.5932 13.4869 40.5738 13.8656C40.5351 14.4697 40.5738 15.0786 40.5738 15.6827C40.6029 16.7135 40.9417 17.0827 42.026 17.3272C43.2104 17.5633 44.367 17.9199 45.4773 18.3916C46.4454 18.8327 47.3167 19.3505 48.2267 19.8299C49.1368 20.3094 49.7225 20.2806 50.5067 19.571C50.9353 19.2178 51.3218 18.8173 51.6588 18.3772C51.9008 18.032 52.1428 18.0176 52.4429 18.3772C53.5466 19.7149 55.0181 20.7361 56.1556 22.0497C56.3589 22.2895 56.4315 22.4141 56.1556 22.6395C55.6651 23.0653 55.2057 23.5252 54.7809 24.0155C54.2097 24.6483 54.1032 25.1374 54.5243 25.8517C55.4194 27.2764 56.1501 28.7962 56.7026 30.3825C56.9011 31.0057 57.0608 31.6386 57.2447 32.2619C57.3133 32.6245 57.5172 32.9482 57.816 33.1686C58.1147 33.389 58.4863 33.4897 58.8567 33.4509C59.4908 33.4509 60.1249 33.4509 60.759 33.4509C61.1027 33.4509 61.2431 33.518 61.2189 33.8584C61.2189 35.6324 61.2189 37.4111 61.2189 39.185C61.2189 39.5254 61.093 39.5974 60.759 39.5878C60.1249 39.5878 59.4908 39.5878 58.8519 39.5878C57.9418 39.5878 57.4335 39.9665 57.2496 40.7672C56.7268 43.0416 55.8061 45.2078 54.5292 47.1678C54.3184 47.4699 54.2285 47.8388 54.2768 48.2029C54.3251 48.567 54.5082 48.9003 54.7906 49.1383C55.1798 49.5438 55.5971 49.9218 56.0394 50.2698C56.4606 50.5814 56.3541 50.8643 56.1024 51.1423C55.8507 51.4204 55.4828 51.7177 55.1827 52.0101C54.2582 52.9019 53.3287 53.7841 52.4284 54.695C52.138 54.9875 51.9443 54.9683 51.6926 54.695C51.3102 54.2635 50.8358 53.9183 50.4776 53.4581C49.8919 52.7005 49.0013 52.643 47.9702 53.3622C46.3535 54.4937 44.4802 55.0546 42.5827 55.5916C42.0986 55.7258 41.6146 55.6923 41.1983 56.071C40.9768 56.2826 40.8058 56.5404 40.6978 56.8257C40.5898 57.1111 40.5474 57.4167 40.5738 57.7203C40.5738 58.3484 40.8207 59.1922 40.477 59.5422C40.1333 59.8922 39.1458 59.6525 38.4488 59.6668C37.3016 59.6668 36.1544 59.6668 35.0071 59.6668C34.5231 59.6668 34.2956 59.5662 34.3682 59.0819C34.39 58.7915 34.39 58.4998 34.3682 58.2093C34.344 57.4566 34.4892 56.7039 33.7679 56.0758C33.4992 55.8537 33.1747 55.7079 32.8289 55.6539C31.2284 55.2974 29.6707 54.7734 28.1819 54.0909C27.6011 53.8128 27.1509 53.3334 26.5507 53.0457V53.0457Z" fill="#6BB4FA"/>
<path d="M73.6785 26.9784C72.4598 22.4954 70.3446 18.3004 67.4583 14.6423C67.2666 14.451 67.1478 14.1997 67.1222 13.9313C67.0966 13.6629 67.1658 13.394 67.3179 13.1704C68.6927 10.4903 67.8504 7.64725 65.6044 5.85413C63.1841 3.93636 59.3116 4.4158 57.327 6.4822C54.6647 9.23421 55.2407 14.4122 59.3842 16.0279C59.452 16.0567 59.5295 16.0711 59.5924 16.0998C60.2776 16.462 61.0423 16.6515 61.819 16.6515C62.5957 16.6515 63.3605 16.462 64.0457 16.0998C64.4475 15.9033 64.9315 15.6204 65.1155 16.3443C65.1397 16.4258 65.2316 16.4882 65.2897 16.5601C67.0367 18.8162 68.4665 21.2968 69.5398 23.9339C71.2465 27.9988 72.1123 32.3615 72.0859 36.7638C72.0403 40.1661 71.4857 43.543 70.4401 46.7842C69.3174 50.1984 67.6453 53.4105 65.4882 56.2963C63.3523 59.1397 60.7912 61.644 57.8933 63.7229C56.6273 64.6274 55.303 65.449 53.9289 66.1824C51.9922 67.2152 49.9533 68.0474 47.8443 68.666C42.3425 70.3097 36.5233 70.6253 30.8732 69.5865C29.8712 69.4139 29.15 69.8118 28.9806 70.6029C28.7869 71.5139 29.2516 72.1659 30.3069 72.3433C37.3015 73.5131 44.1557 73.2063 50.7825 70.6413C52.6535 70.0033 54.4552 69.1809 56.1604 68.1865C57.5303 67.3139 59.0018 66.5804 60.2507 65.5352C61.2188 64.7393 62.1869 64.025 63.1211 63.1763C64.8244 61.6041 66.3858 59.8876 67.7875 58.0463C68.9113 56.5429 69.9194 54.9578 70.8031 53.3046C75.1146 45.2113 76.1432 35.7928 73.6785 26.9736V26.9784ZM65.009 10.8739C64.9073 12.2067 64.1231 13.1177 62.7097 13.5252C62.7025 13.575 62.6835 13.6224 62.6544 13.6636C62.6253 13.7048 62.5869 13.7387 62.5421 13.7625C62.4974 13.7862 62.4476 13.7993 62.3968 13.8006C62.3461 13.8018 62.2958 13.7913 62.2499 13.7697H61.3931C61.1462 13.8369 60.9913 13.7697 60.909 13.5252C60.3179 13.4071 59.7793 13.1079 59.3693 12.67C58.9593 12.2321 58.6987 11.6775 58.6243 11.0849C58.5042 10.4747 58.5795 9.84261 58.8399 9.27698C59.1003 8.71134 59.5326 8.24044 60.0764 7.93012C60.5791 7.60565 61.1644 7.42933 61.7643 7.42169C62.3642 7.41405 62.954 7.57541 63.4649 7.88697C63.9983 8.17031 64.4319 8.60799 64.7077 9.14164C64.9836 9.6753 65.0887 10.2796 65.009 10.8739Z" fill="#13399F"/>
<path d="M50.9424 5.39836C51.1354 5.40947 51.3287 5.38137 51.5104 5.31576C51.6921 5.25016 51.8583 5.14845 51.9989 5.01688C52.1394 4.88531 52.2513 4.72666 52.3276 4.55069C52.404 4.37471 52.4433 4.18513 52.4429 3.99359C52.4529 3.80657 52.4239 3.61951 52.3578 3.44403C52.2918 3.26855 52.19 3.1084 52.0588 2.97352C51.9276 2.83864 51.7699 2.73191 51.5953 2.65996C51.4207 2.58801 51.2331 2.55237 51.044 2.55526C50.8507 2.54074 50.6564 2.56591 50.4733 2.6292C50.2903 2.69248 50.1224 2.79251 49.9801 2.92302C49.8379 3.05354 49.7244 3.21173 49.6468 3.3877C49.5691 3.56366 49.529 3.75361 49.5289 3.94565C49.5249 4.32305 49.6709 4.68686 49.9354 4.95862C50.1998 5.23038 50.5614 5.38831 50.9424 5.39836Z" fill="#6BB4FA"/>
<path d="M24.1013 67.6541C23.9082 67.6503 23.7162 67.6846 23.5366 67.7552C23.3571 67.8258 23.1936 67.9311 23.0557 68.0651C22.9177 68.199 22.8081 68.3589 22.7333 68.5353C22.6585 68.7117 22.6201 68.9011 22.6201 69.0924C22.6219 69.2775 22.6612 69.4603 22.7358 69.63C22.8103 69.7997 22.9185 69.9529 23.0539 70.0803C23.1894 70.2078 23.3494 70.307 23.5243 70.372C23.6992 70.437 23.8856 70.4666 24.0723 70.4588C24.2562 70.4719 24.4409 70.4477 24.6151 70.3876C24.7892 70.3275 24.9491 70.2328 25.0851 70.1094C25.221 69.986 25.3301 69.8364 25.4056 69.6698C25.4812 69.5032 25.5216 69.323 25.5245 69.1404C25.535 68.9489 25.506 68.7573 25.4392 68.5774C25.3724 68.3974 25.2692 68.2328 25.136 68.0937C25.0028 67.9546 24.8423 67.8438 24.6644 67.7682C24.4865 67.6927 24.2949 67.6538 24.1013 67.6541V67.6541Z" fill="#6BB4FA"/>
<path d="M35.1571 2.9918C35.5552 3.03792 35.9587 3.00367 36.3431 2.89111C35.9558 3.00139 35.5395 2.82879 35.1571 2.9918Z" fill="black"/>
<path d="M35.6025 0.0529287C35.2875 0.0135946 34.9677 0.0397185 34.6635 0.129638C34.9732 0.0481323 35.3072 0.153612 35.6025 0.0529287Z" fill="black"/>
<path d="M40.4625 0.1342C40.1527 0.0622833 39.838 -0.0719607 39.5282 0.1342C39.8364 0.0718159 40.1542 0.0718159 40.4625 0.1342V0.1342Z" fill="black"/>
<path d="M12.6049 68.5316C12.453 68.4392 12.2905 68.3651 12.1208 68.311C12.1886 68.5604 12.3871 68.5603 12.6049 68.5316Z" fill="black"/>
<path d="M60.9285 13.5253C61.0592 13.6451 61.2625 13.6547 61.4125 13.7698C61.3302 13.5397 61.1657 13.4725 60.9285 13.5253Z" fill="black"/>
<path d="M62.2499 13.7694C62.3806 13.6543 62.579 13.6447 62.7097 13.5249C62.4725 13.4769 62.308 13.5392 62.2499 13.7694Z" fill="black"/>
<path d="M47.4087 43.2792C48.4133 41.8849 49.0957 40.2885 49.4074 38.6035C49.7191 36.9185 49.6524 35.1863 49.212 33.5297C48.7717 31.8731 47.9686 30.3328 46.8597 29.0183C45.7508 27.7037 44.3632 26.6471 42.7956 25.9234C40.96 25.0423 38.9298 24.6338 36.8925 24.7355C34.8553 24.8372 32.8768 25.4459 31.1399 26.5053C29.403 27.5647 27.9638 29.0407 26.9552 30.7968C25.9466 32.5529 25.4013 34.5325 25.3695 36.5527C25.4034 36.9506 25.4276 37.4204 25.4808 37.8903C25.658 39.6266 26.2377 41.2988 27.1747 42.7766C28.1118 44.2545 29.3808 45.4979 30.8829 46.41C35.9559 49.6319 43.5362 48.7833 47.4087 43.2792ZM28.3319 35.9581C28.5304 33.2349 29.8567 30.6315 32.9402 28.8384C34.1822 28.0651 35.6036 27.6199 37.0687 27.5452C38.5339 27.4705 39.9939 27.7688 41.3096 28.4117C45.2837 30.2576 47.2393 33.9253 46.5277 38.0869C46.1245 40.1563 45.0049 42.0214 43.362 43.3608C40.6125 45.7963 35.5154 46.1991 32.2286 43.8402C29.6438 42.0039 28.3223 39.5012 28.3319 35.9581Z" fill="#13399F"/>
</g>
<defs>
<clipPath id="clip0_65_93">
<rect width="75" height="73" fill="white"/>
</clipPath>
</defs>
</svg>
