<svg width="78" height="78" viewBox="0 0 78 78" fill="none" xmlns="http://www.w3.org/2000/svg">
<g clip-path="url(#clip0_65_86)">
<path d="M78 50.498C77.8334 50.0891 77.9614 49.6598 77.9208 49.2427C77.9349 48.529 77.8866 47.8155 77.7765 47.1103C76.8783 41.7825 74.4724 37.207 70.7578 33.3491C67.8104 30.2867 64.1529 28.0091 60.114 26.721C59.7279 26.5942 59.3296 26.4818 59.0715 26.1281C58.9842 26.0075 58.85 25.8848 58.9069 25.7192C58.9638 25.5536 59.1589 25.5802 59.3133 25.5781C60.1749 25.5781 61.0385 25.5597 61.9022 25.5781C64.1577 25.6231 66.0475 24.8585 67.6183 23.1882C69.6686 21.0088 70.1766 17.4637 68.6607 14.8713C67.1916 12.3648 65.0173 11.0318 62.083 11.038C58.5026 11.0462 54.9228 11.0462 51.3437 11.038C50.5695 11.038 50.5694 11.038 50.8783 10.3654C53.1136 5.57724 49.6591 0.0347241 44.3758 0.0183684C31.9126 -0.0197947 19.446 -0.0197947 6.97602 0.0183684C5.79955 -0.00716931 4.63858 0.291917 3.61908 0.883175C1.56062 2.12825 0.128026 3.80879 0.00610352 6.35618V8.19618C0.178827 9.03237 0.168666 9.89922 0.6401 10.6782C2.14381 13.1703 4.28559 14.5279 7.21174 14.534C10.7678 14.534 14.3239 14.534 17.8759 14.534C18.1421 14.534 18.4266 14.444 18.7253 14.6505C17.439 17.0793 17.4512 19.5306 18.7761 22.0699C17.5955 22.0903 16.5408 22.0699 15.4781 22.0821C13.381 22.0964 11.5806 22.7793 10.085 24.331C8.79897 25.6312 8.06308 27.3818 8.03164 29.2158C8.00019 31.0498 8.67564 32.8249 9.91639 34.1689C10.5565 34.86 10.5565 34.86 9.892 35.5816C8.68816 36.8893 8.02072 38.6069 8.02373 40.3893C8.02675 42.1718 8.7 43.887 9.90826 45.1906C10.5545 45.8939 10.5545 45.8939 9.89607 46.6094C8.68735 47.9137 8.0152 49.6306 8.0152 51.4139C8.0152 53.1972 8.68735 54.9141 9.89607 56.2184C10.5524 56.9298 10.5484 56.9258 9.89607 57.6331C8.73765 58.8464 8.0685 60.4493 8.01846 62.1309C7.97758 63.1176 8.13678 64.1022 8.48639 65.025C8.836 65.9477 9.36869 66.7892 10.052 67.498C10.7353 68.2069 11.5549 68.7684 12.4609 69.1483C13.3668 69.5282 14.3402 69.7185 15.3216 69.7077C20.5521 69.724 25.7826 69.7404 31.0131 69.6934C32.2871 69.6811 33.4292 69.769 34.2643 70.8873C34.4412 71.07 34.636 71.2344 34.8455 71.378C41.1753 76.8837 48.5049 79.0365 56.7144 77.5318C65.5294 75.9146 71.8795 70.8342 75.781 62.73C77.047 60.0987 77.9005 57.3142 77.9187 54.3375C77.9573 53.9777 77.8314 53.6056 77.998 53.256L78 50.498ZM62.2192 14.3295C64.5012 14.3295 66.267 16.0837 66.267 18.3101C66.267 20.5365 64.5012 22.2907 62.2192 22.2927C56.0038 22.3009 49.7871 22.3009 43.5691 22.2927C37.3795 22.2927 31.1885 22.2927 24.9962 22.2927C24.0482 22.2964 23.1303 21.9585 22.4086 21.34C21.687 20.7216 21.2093 19.8636 21.0621 18.9214C20.7431 17.0977 21.875 15.2128 23.6571 14.5647C24.1134 14.4006 24.5949 14.3189 25.0795 14.3234C37.4574 14.3275 49.8372 14.3295 62.2192 14.3295V14.3295ZM7.09794 11.2588C4.81799 11.2588 3.05621 9.49851 3.05824 7.26801C3.06027 5.03751 4.82815 3.29563 7.11217 3.29359C13.3302 3.29359 19.5469 3.29359 25.7623 3.29359C31.9546 3.29359 38.1462 3.29359 44.3372 3.29359C45.2851 3.29035 46.2027 3.62945 46.9232 4.24925C47.6436 4.86905 48.119 5.72839 48.2631 6.67102C48.5801 8.49059 47.4503 10.3797 45.66 11.0216C45.2034 11.1846 44.7221 11.2662 44.2376 11.2629C31.853 11.2601 19.4731 11.2588 7.09794 11.2588ZM13.9073 25.6027C14.3636 25.4382 14.8451 25.3559 15.3298 25.3594C27.7144 25.3594 40.099 25.3594 52.4836 25.3594C52.9336 25.3509 53.3797 25.4453 53.7882 25.6354C50.8406 25.5201 47.8931 25.8649 45.0504 26.6576C40.9871 27.8152 37.2699 29.9625 34.2278 32.9095C34.1029 33.0475 33.9502 33.157 33.7799 33.2307C33.6096 33.3044 33.4256 33.3406 33.2402 33.3368C27.2518 33.3225 21.2633 33.3368 15.2729 33.3246C14.3251 33.3302 13.4066 32.9945 12.6836 32.378C11.9605 31.7615 11.4806 30.905 11.3307 29.9635C10.9913 28.146 12.109 26.2569 13.8972 25.6027H13.9073ZM26.4694 55.4026H25.7745C22.3227 55.4026 18.8682 55.4026 15.411 55.4026C13.06 55.4026 11.2819 53.6832 11.2758 51.4282C11.2697 49.1732 13.0498 47.4395 15.3907 47.4354C18.9184 47.4354 22.446 47.4354 25.9716 47.4211C26.4654 47.4211 26.569 47.5519 26.4918 48.016C26.1122 50.4626 26.1012 52.9528 26.4593 55.4026H26.4694ZM25.8293 44.3626H15.4822C13.0742 44.3626 11.2839 42.6555 11.2839 40.3759C11.2839 38.0963 13.0762 36.3953 15.4822 36.3933H31.1675C29.9491 38.0912 28.9323 39.9266 28.1377 41.8622C27.9792 42.2711 27.8228 42.6657 27.6785 43.0725C27.2152 44.3667 27.2152 44.3667 25.8192 44.3667L25.8293 44.3626ZM28.0219 66.4427C23.8318 66.4427 19.6424 66.4427 15.4537 66.4427C13.0579 66.4427 11.2718 64.7131 11.2839 62.4233C11.2982 60.1744 13.0843 58.4775 15.4456 58.4754C19.1032 58.4754 22.7609 58.4754 26.4186 58.4611C26.9246 58.4611 27.1502 58.5695 27.2965 59.097C28.045 61.7176 29.2117 64.1985 30.7509 66.4427H28.0219ZM52.0955 74.7186C39.5172 74.7186 29.2635 64.3921 29.2614 51.7349C29.2594 39.0777 39.507 28.7491 52.0854 28.7409C58.1527 28.7431 63.9709 31.1693 68.2607 35.4861C72.5506 39.803 74.961 45.6571 74.9621 51.7615C74.9377 64.4105 64.6698 74.7186 52.0854 74.7125L52.0955 74.7186Z" fill="#13399F"/>
<path d="M60.8678 33.858C59.8681 33.3612 58.9597 33.6719 58.598 34.6042C58.2993 35.3709 58.5981 36.113 59.4515 36.5587C60.9034 37.2887 62.2457 38.2213 63.4384 39.3289C69.0285 44.6895 70.39 52.2928 67.0371 59.3646C66.5291 60.4318 66.7283 61.2843 67.5838 61.7198C68.4392 62.1553 69.2378 61.7852 69.7723 60.7139C71.1947 57.8885 71.8734 54.8893 71.9018 52.5075C71.9201 47.472 70.5363 43.2768 67.982 39.8319C66.1194 37.297 63.6798 35.2484 60.8678 33.858Z" fill="#6BB4FA"/>
<path d="M44.8757 66.9459C44.6176 66.7864 44.3372 66.6658 44.075 66.5104C38.6718 63.3436 35.7437 58.6147 35.3698 52.3424C35.1991 49.4801 35.8412 46.7753 37.1052 44.2136C37.3084 43.8047 37.5522 43.3958 37.4628 42.9113C37.3388 42.2223 36.9487 41.7398 36.2436 41.611C35.4816 41.4699 34.9187 41.7868 34.557 42.482C33.0492 45.381 32.3217 48.4702 32.2791 52.3607C32.4823 58.4941 35.195 63.9201 40.6104 67.9517C41.5043 68.6216 42.4669 69.1932 43.4817 69.6568C44.2945 70.031 45.1297 69.7693 45.5137 69.0435C45.8978 68.3177 45.6722 67.4345 44.8757 66.9459Z" fill="#6BB4FA"/>
<path d="M54.408 34.8639C54.7075 34.8598 54.9991 34.7671 55.2465 34.5972C55.4939 34.4274 55.6861 34.188 55.799 33.9089C55.912 33.6298 55.9407 33.3234 55.8815 33.028C55.8224 32.7326 55.6781 32.4613 55.4666 32.2479C55.2551 32.0345 54.9857 31.8886 54.6923 31.8283C54.3988 31.7681 54.0942 31.7961 53.8165 31.909C53.5389 32.0219 53.3004 32.2146 53.1309 32.4631C52.9614 32.7115 52.8685 33.0047 52.8637 33.306C52.8629 33.5105 52.9022 33.7131 52.9795 33.9022C53.0568 34.0913 53.1704 34.2632 53.3139 34.408C53.4575 34.5527 53.628 34.6675 53.8158 34.7458C54.0035 34.824 54.2048 34.8642 54.408 34.8639V34.8639Z" fill="#4466FA"/>
<path d="M49.7973 68.583C49.4978 68.5863 49.2059 68.6783 48.9581 68.8475C48.7103 69.0167 48.5175 69.2556 48.4038 69.5344C48.2901 69.8132 48.2607 70.1195 48.319 70.415C48.3774 70.7106 48.521 70.9823 48.7319 71.1962C48.9429 71.4101 49.2118 71.5568 49.5051 71.6178C49.7984 71.6789 50.1031 71.6516 50.381 71.5395C50.659 71.4273 50.898 71.2352 51.0681 70.9872C51.2383 70.7392 51.332 70.4463 51.3376 70.145C51.3397 69.9403 51.3015 69.7372 51.225 69.5475C51.1485 69.3578 51.0353 69.1853 50.892 69.04C50.7487 68.8947 50.5781 68.7795 50.3902 68.701C50.2023 68.6226 50.0008 68.5825 49.7973 68.583V68.583Z" fill="#4466FA"/>
<path d="M52.0325 49.5698C51.733 49.5731 51.4412 49.6651 51.1933 49.8343C50.9455 50.0035 50.7527 50.2424 50.639 50.5212C50.5254 50.8 50.4959 51.1063 50.5542 51.4019C50.6126 51.6974 50.7562 51.9691 50.9672 52.183C51.1781 52.397 51.447 52.5436 51.7403 52.6046C52.0336 52.6657 52.3383 52.6384 52.6163 52.5263C52.8943 52.4141 53.1333 52.222 53.3034 51.974C53.4735 51.726 53.5672 51.4331 53.5728 51.1318C53.575 50.9271 53.5367 50.724 53.4602 50.5343C53.3837 50.3447 53.2705 50.1722 53.1272 50.0268C52.9839 49.8815 52.8134 49.7663 52.6254 49.6878C52.4375 49.6094 52.236 49.5693 52.0325 49.5698V49.5698Z" fill="#6BB4FA"/>
</g>
<defs>
<clipPath id="clip0_65_86">
<rect width="78" height="78" fill="white"/>
</clipPath>
</defs>
</svg>
