<svg width="69" height="90" viewBox="0 0 69 90" fill="none" xmlns="http://www.w3.org/2000/svg">
<g clip-path="url(#clip0_65_106)">
<path d="M67.7803 29.9905C67.1047 28.7854 66.8237 27.3981 66.9767 26.0243C67.3407 22.5604 66.1967 19.703 63.4454 17.5233C62.3484 16.6365 61.5605 15.4237 61.1952 14.0594C60.8027 12.5764 60.0284 11.2229 58.9498 10.1343C57.8713 9.04569 56.5263 8.26023 55.0497 7.85657C53.5351 7.40004 52.1947 6.49277 51.2063 5.25509C50.2458 4.04333 48.9837 3.10662 47.5472 2.53928C46.1106 1.97195 44.5503 1.794 43.0233 2.02337C42.3852 2.11196 41.737 2.09596 41.1041 1.97598C39.2131 1.58268 37.6531 0.293792 35.7244 0H33.2662C31.8342 0.372677 30.4495 0.908465 29.1392 1.5969C28.1758 2.03918 27.1048 2.19066 26.057 2.03284C24.4865 1.79072 22.8799 1.97463 21.4043 2.56544C19.9287 3.15626 18.6379 4.13244 17.666 5.39251C16.7487 6.53861 15.5031 7.37542 14.0969 7.79024C12.5782 8.19516 11.1939 8.99669 10.0852 10.113C8.97644 11.2294 8.18304 12.6206 7.78589 14.1447C7.43951 15.4553 6.68011 16.6187 5.62077 17.4617C4.32741 18.4093 3.31137 19.6873 2.6786 21.1626C2.04584 22.6378 1.81953 24.2562 2.02329 25.849C2.16489 27.3693 1.84524 28.897 1.10619 30.2322C0.36738 31.5375 -0.0209961 33.0127 -0.0209961 34.5135C-0.0209961 36.0143 0.36738 37.4894 1.10619 38.7948C1.84191 40.1292 2.15672 41.6558 2.00909 43.1733C1.81187 44.7524 2.03869 46.3557 2.66611 47.8176C3.29353 49.2795 4.29885 50.5471 5.57824 51.4895C6.6601 52.3511 7.43324 53.5419 7.78116 54.8823C8.08376 56.0077 8.60873 57.0607 9.32496 57.9789C10.0412 58.897 10.9341 59.6617 11.9507 60.2274C12.5699 60.5781 12.5841 60.8435 12.3241 61.431C9.90372 66.9278 7.50067 72.434 5.11495 77.9498C3.54548 81.5464 5.65861 84.7828 9.59647 84.8112C11.4401 84.8112 13.2838 84.8112 15.1274 84.8112C15.3727 84.8 15.6173 84.8435 15.8438 84.9386C16.0702 85.0337 16.2728 85.1779 16.4369 85.3609C17.4107 86.3797 18.4129 87.3606 19.4104 88.351C22.1144 91.0377 25.7639 90.3838 27.3428 86.9294C29.6214 81.9381 31.8952 76.9468 34.1643 71.9555C34.2636 71.7375 34.2683 71.4389 34.5993 71.3252C34.7033 71.5432 34.7978 71.747 34.8924 71.9555C37.1709 76.9752 39.4527 81.9934 41.7375 87.0099C43.2692 90.3601 46.9376 91.014 49.5801 88.4315C50.6012 87.4222 51.6271 86.4176 52.6198 85.3846C52.7826 85.1997 52.9849 85.0538 53.2115 84.9578C53.4382 84.8619 53.6835 84.8182 53.9293 84.8302C55.8013 84.8555 57.6733 84.8555 59.5453 84.8302C63.4076 84.7876 65.497 81.5132 63.9465 77.9687C61.5324 72.4372 59.1152 66.9088 56.6948 61.3837C56.4679 60.8719 56.482 60.616 57.0257 60.308C58.0505 59.7375 58.9504 58.966 59.6716 58.0396C60.3928 57.1131 60.9206 56.0507 61.2235 54.9155C61.5633 53.6067 62.3162 52.4432 63.3698 51.5985C66.2062 49.3903 67.3501 46.495 66.9909 42.96C66.8439 41.614 67.1199 40.2556 67.7803 39.0744C68.5923 37.6991 69.0206 36.1305 69.0206 34.5325C69.0206 32.9344 68.5923 31.3658 67.7803 29.9905V29.9905ZM32.1032 69.1834C29.5458 74.7796 27.0261 80.3854 24.4592 85.9769C23.9155 87.1616 22.6675 87.3274 21.7031 86.4034C20.5654 85.304 19.4466 84.1873 18.3467 83.0532C17.9663 82.6473 17.5039 82.3274 16.9903 82.1149C16.4767 81.9025 15.9238 81.8023 15.3685 81.8212C13.3783 81.8212 11.3881 81.8449 9.40263 81.8212C7.94662 81.7975 7.15716 80.755 7.70081 79.4993C10.2488 73.5855 12.8394 67.686 15.4205 61.7675C16.2654 62.1346 16.9979 62.72 17.5431 63.4639C18.4932 64.7372 19.7639 65.7342 21.2251 66.3529C22.6864 66.9716 24.2854 67.1896 25.8584 66.9847C27.3193 66.7994 28.8004 67.099 30.0752 67.8376C30.6248 68.1715 31.2206 68.4222 31.8432 68.5816C32.2072 68.6763 32.2782 68.8043 32.1032 69.1834ZM61.2614 79.3619C61.8475 80.7171 61.1385 81.7548 59.6446 81.7928C58.5952 81.8212 57.541 81.7928 56.4868 81.7928C55.5413 81.7928 54.5958 81.7928 53.6787 81.7928C53.123 81.7726 52.5694 81.8717 52.055 82.0834C51.5405 82.295 51.0772 82.6144 50.6958 83.02C49.6322 84.1099 48.5496 85.1809 47.467 86.247C46.3088 87.3843 45.1317 87.1948 44.4699 85.7495C41.9597 80.2622 39.4731 74.7654 36.9582 69.2781C36.7408 68.8043 36.8731 68.7332 37.308 68.501C39.6138 67.2976 42.2082 66.761 44.8008 66.9515C47.4008 67.0652 49.5565 65.7384 51.2347 63.7293C51.7551 63.0582 52.3772 62.473 53.0784 61.9949C53.4376 61.7627 53.6267 61.7343 53.8253 62.194C56.293 67.9182 58.7937 73.6329 61.2614 79.3619ZM65.1472 37.558C64.1639 39.301 63.7599 41.3126 63.9938 43.3012C64.1536 44.4092 64.0093 45.5399 63.5761 46.5719C63.143 47.6038 62.4376 48.4979 61.5356 49.1581C60.0024 50.3547 58.8976 52.0174 58.3871 53.8967C58.1194 54.983 57.5596 55.9749 56.7686 56.7644C55.9776 57.5539 54.9857 58.1109 53.9009 58.3747C52.1293 58.821 50.552 59.8361 49.41 61.2652C47.779 63.3739 45.7085 64.3311 43.6615 64.0373C41.1041 63.7909 39.2888 64.2031 37.5728 65.1556C36.6392 65.7159 35.5715 66.0119 34.4834 66.0119C33.3953 66.0119 32.3277 65.7159 31.3941 65.1556C29.7941 64.2094 27.9329 63.804 26.0854 63.9994C24.852 64.198 23.5877 64.0452 22.4368 63.5584C21.2858 63.0717 20.2945 62.2705 19.5758 61.2462C18.4534 59.8361 16.898 58.8367 15.1511 58.4031C14.0649 58.1444 13.0704 57.5918 12.276 56.8055C11.4816 56.0193 10.9177 55.0295 10.6459 53.9441C10.1251 52.0392 9.00216 50.3549 7.44551 49.1439C6.5458 48.4793 5.84526 47.58 5.42016 46.544C4.99505 45.5079 4.86168 44.3748 5.03459 43.268C5.27343 41.3303 4.8804 39.3671 3.91422 37.6718C3.32883 36.7037 3.0193 35.5934 3.0193 34.4614C3.0193 33.3294 3.32883 32.219 3.91422 31.251C4.8469 29.6127 5.22816 27.7168 5.0015 25.8442C4.82011 24.6948 4.96048 23.5175 5.407 22.4433C5.85352 21.3691 6.58869 20.4402 7.53063 19.7599C9.02438 18.6074 10.0976 16.9936 10.5845 15.1682C10.8542 14.0521 11.4265 13.0325 12.2383 12.2222C13.0501 11.4118 14.0696 10.8423 15.1842 10.5765C17.0269 10.0614 18.6558 8.96676 19.8311 7.45379C20.5114 6.52874 21.435 5.81154 22.4985 5.38226C23.562 4.95299 24.7237 4.82857 25.8537 5.02291C27.7256 5.26522 29.6248 4.87681 31.2523 3.91881C32.2199 3.32976 33.3302 3.01826 34.4622 3.01826C35.5942 3.01826 36.7045 3.32976 37.672 3.91881C39.4453 4.90697 41.4914 5.28955 43.5008 5.00869C44.5071 4.85458 45.5363 4.97474 46.4803 5.35659C47.4244 5.73845 48.2485 6.36791 48.8663 7.17896C50.2332 8.91043 52.1112 10.1643 54.2318 10.7613C55.1843 11.016 56.0531 11.5174 56.751 12.2153C57.4489 12.9132 57.9512 13.7829 58.2075 14.737C58.8038 16.8635 60.0586 18.7451 61.7908 20.1106C63.5777 21.5321 64.2207 23.4987 63.9512 25.74C63.711 27.6993 64.109 29.6838 65.0858 31.3979C65.6483 32.324 65.9509 33.3853 65.9617 34.4695C65.9725 35.5537 65.6911 36.6208 65.1472 37.558V37.558Z" fill="#13399F"/>
<path d="M34.4763 7.51524C29.1484 7.53024 23.9445 9.12816 19.5223 12.107C15.1002 15.0859 11.6582 19.312 9.63163 24.2512C7.60503 29.1905 7.08469 34.621 8.13637 39.8566C9.18806 45.0922 11.7646 49.8977 15.5403 53.6658C19.3159 57.4339 24.1213 59.9955 29.349 61.0267C34.5766 62.058 39.992 61.5126 44.9105 59.4595C49.8291 57.4065 54.03 53.9379 56.9824 49.4922C59.9348 45.0465 61.5061 39.8232 61.4977 34.4825C61.4921 30.9328 60.7885 27.4189 59.4271 24.1418C58.0657 20.8648 56.0733 17.8889 53.5637 15.3844C51.0541 12.8798 48.0766 10.8956 44.8014 9.54538C41.5262 8.19514 38.0176 7.50527 34.4763 7.51524ZM16.5361 47.9923C15.0234 48.3097 14.2717 47.5184 13.591 46.2722C10.9767 41.5552 9.99743 36.1022 10.8066 30.7675C10.8917 30.1752 11.0997 29.9525 11.7521 29.9714C13.6194 30.0283 15.4914 30.0141 17.3587 29.9714C17.9165 29.9714 18.0347 30.1325 18.0252 30.6585C18.0016 33.4353 18.0252 36.2121 18.0252 38.9889C18.0252 41.7658 18.0252 44.4288 18.0252 47.1488C18.0252 47.7601 17.9401 48.0965 17.2357 47.9686C17.0032 47.9314 16.7656 47.9394 16.5361 47.9923V47.9923ZM39.3691 57.9765C31.0679 59.5829 23.8209 57.3557 17.6848 51.5367C17.5478 51.404 17.3445 51.3093 17.3256 50.9681C18.6209 51.0818 19.6892 50.7643 20.455 49.6982C20.6441 49.4281 20.9278 49.5086 21.1736 49.5086C23.1071 49.5086 25.0406 49.5086 26.9693 49.5086C27.8518 49.4766 28.7243 49.7039 29.4795 50.1625C32.4603 52.0697 35.999 52.9051 39.5156 52.5318C40.714 52.4702 41.9147 52.4702 43.1131 52.5318C46.6964 52.6076 48.9608 49.1295 47.5946 46.1869C47.4244 45.8315 47.5426 45.6893 47.7979 45.4713C48.5748 44.8811 49.1278 44.0432 49.3658 43.0956C49.6039 42.1481 49.5127 41.1475 49.1073 40.2589C49.0348 40.1251 49.017 39.9683 49.0576 39.8216C49.0981 39.6748 49.194 39.5496 49.3248 39.4723C51.575 37.4726 51.5608 34.5299 49.2728 32.5492C48.9419 32.2602 48.9939 32.0753 49.1168 31.7626C49.4036 31.0689 49.5134 30.3144 49.4364 29.5674C49.3594 28.8205 49.098 28.1045 48.6757 27.4842C48.2535 26.8639 47.6837 26.3588 47.0179 26.0145C46.3521 25.6703 45.6112 25.4977 44.8622 25.5124C42.8815 25.484 40.9054 25.5124 38.7734 25.5124C39.6054 24.2567 40.3429 23.1147 41.104 21.9869C42.4844 19.9303 42.1866 17.4663 40.3713 16.0068C38.556 14.5473 36.0079 14.7748 34.3108 16.6228C30.9387 20.281 27.576 23.9487 24.2227 27.6258C23.5278 28.384 21.5943 28.8531 20.6678 28.4882C20.5642 28.4384 20.4761 28.3614 20.4125 28.2655C19.6561 27.2372 18.6019 26.9956 17.3918 27.024C15.7845 27.0619 14.1724 27.0003 12.5651 27.0477C11.8419 27.0477 11.7142 26.9103 11.9837 26.2279C15.0423 18.4993 20.5307 13.3864 28.5719 11.3061C31.6908 10.4923 34.9417 10.3186 38.1293 10.7953C41.3169 11.2721 44.3756 12.3895 47.1217 14.0805C49.8679 15.7715 52.2448 18.0012 54.11 20.6358C55.9752 23.2704 57.2901 26.2556 57.9758 29.4123C60.9067 42.2775 52.3645 55.4603 39.3691 57.9765ZM20.994 38.9937C20.994 36.7381 20.994 34.4825 20.994 32.227C20.994 31.6963 21.0649 31.4025 21.6936 31.4735C23.906 31.7342 25.518 30.7675 26.9598 29.1327C30.009 25.6546 33.1763 22.2807 36.2963 18.8689C36.4989 18.6154 36.7378 18.3934 37.0054 18.2102C37.2515 18.0434 37.5492 17.9707 37.8442 18.0055C38.1393 18.0403 38.412 18.1802 38.6127 18.3998C39.1658 18.9731 39.0854 19.6081 38.6836 20.2384C37.423 22.1338 36.1624 24.0292 34.9017 25.9247C34.7299 26.125 34.6103 26.3649 34.5534 26.6228C34.4965 26.8808 34.5041 27.1488 34.5756 27.4031C34.6824 27.7418 34.9025 28.0333 35.1987 28.2283C35.4949 28.4234 35.8492 28.5102 36.2018 28.474C38.9531 28.474 41.7044 28.474 44.4557 28.474C44.8044 28.4407 45.1562 28.4843 45.4862 28.602C45.812 28.7047 46.0899 28.9218 46.2688 29.2134C46.4477 29.505 46.5156 29.8516 46.4601 30.1894C46.4251 30.5125 46.2807 30.8137 46.0511 31.0431C45.8214 31.2724 45.5203 31.416 45.1979 31.4499C44.9993 31.4878 44.7913 31.4972 44.5975 31.5541C44.254 31.6435 43.9548 31.8556 43.7564 32.1506C43.5579 32.4455 43.4737 32.803 43.5197 33.1557C43.5505 33.511 43.7134 33.8417 43.9761 34.0822C44.2388 34.3227 44.5821 34.4555 44.9379 34.4541C45.4106 34.4778 45.8833 34.4541 46.3561 34.4541C46.7841 34.4439 47.1987 34.6043 47.5088 34.9002C47.819 35.196 47.9995 35.603 48.0106 36.0321C47.9681 36.8708 47.3157 37.4157 46.323 37.4536C45.8502 37.4536 45.3775 37.4252 44.9048 37.4536C44.5367 37.4781 44.1899 37.6357 43.9291 37.8972C43.6682 38.1587 43.511 38.5062 43.4866 38.8752C43.4785 39.2439 43.6061 39.6027 43.845 39.8832C44.0838 40.1637 44.4173 40.3464 44.7819 40.3963C44.9568 40.4295 45.1317 40.4437 45.3019 40.4863C45.6401 40.5575 45.9422 40.7466 46.1544 41.02C46.3667 41.2933 46.4754 41.6333 46.4612 41.9794C46.4471 42.3255 46.3109 42.6554 46.077 42.9104C45.8431 43.1654 45.5266 43.329 45.1837 43.3721C44.6888 43.4197 44.1916 43.4386 43.6946 43.429C42.6924 43.4669 42.1062 43.9408 42.0258 44.7558C41.9927 44.9606 42.0047 45.1702 42.061 45.3699C42.1172 45.5695 42.2164 45.7544 42.3516 45.9116C42.4867 46.0687 42.6546 46.1943 42.8433 46.2795C43.032 46.3647 43.237 46.4075 43.444 46.4048C43.8563 46.4194 44.2473 46.5923 44.5359 46.8878C44.8245 47.1833 44.9888 47.5788 44.9946 47.9923C44.9662 48.8073 44.224 49.4138 43.2077 49.4138C40.8062 49.4138 38.4047 49.4138 36.0032 49.4138C35.1494 49.4358 34.3073 49.2104 33.5781 48.7647C30.4864 46.7413 27.0922 46.0921 23.4569 46.3954C22.6816 46.4617 21.6416 46.7413 21.1689 46.2722C20.6961 45.803 21.0223 44.7226 21.0081 43.9029C20.9845 42.3296 21.0034 40.6617 21.0034 38.9937H20.994Z" fill="#6BB4FA"/>
</g>
<defs>
<clipPath id="clip0_65_106">
<rect width="69" height="90" fill="white"/>
</clipPath>
</defs>
</svg>
