<svg width="30" height="33" viewBox="0 0 30 33" fill="none" xmlns="http://www.w3.org/2000/svg">
<path d="M29.25 0.741943H0V32.0338H29.25V0.741943ZM22.8312 12.0661C22.8312 12.2156 22.8312 12.3634 22.8312 12.6624C22.8312 18.3245 18.7915 24.8819 11.4091 24.8819C9.18125 24.8819 7.0915 24.1361 5.28125 22.9452C5.55912 22.9452 5.97837 22.9452 6.25625 22.9452C8.0665 22.9452 9.87838 22.1994 11.271 21.1564C9.46075 21.1564 8.06813 19.8161 7.51075 18.1767C7.78863 18.1767 8.06812 18.3262 8.20787 18.3262C8.6255 18.3262 8.905 18.3262 9.32263 18.1767C7.51238 17.7299 6.11975 16.0906 6.11975 14.0045C6.67712 14.3017 7.2345 14.4512 7.93 14.6007C6.81525 13.5577 6.11975 12.3651 6.11975 10.8753C6.11975 10.1295 6.2595 9.38544 6.67713 8.78916C8.62713 11.3221 11.5521 13.1109 14.8948 13.2587C14.8948 12.9614 14.755 12.6624 14.755 12.2156C14.755 9.83222 16.5653 7.89387 18.7948 7.89387C19.9095 7.89387 21.0226 8.34064 21.7197 9.2342C22.6947 9.08469 23.53 8.63792 24.2271 8.19114C23.9493 9.2342 23.2521 9.97999 22.4169 10.5745C23.2521 10.425 23.9493 10.2773 24.7845 9.82874C24.2239 10.7258 23.5284 11.4698 22.8312 12.0661Z" fill="#13399F"/>
</svg>
